<svg xmlns="http://www.w3.org/2000/svg" width="20" height="24.003" viewBox="701.5 493.25 20 24.003"><g data-name="CompositeLayer"><path d="M716.5 501.253h-10v-1a5 5 0 0 1 9.375-2.422 1 1 0 1 0 1.749-.971 7 7 0 0 0-13.124 3.393v1.424a5 5 0 0 0-3 4.576v6a5.006 5.006 0 0 0 5 5h10a5.006 5.006 0 0 0 5-5v-6a5.006 5.006 0 0 0-5-5Zm3 11a3 3 0 0 1-3 3h-10a3 3 0 0 1-3-3v-6a3 3 0 0 1 3-3h10a3 3 0 0 1 3 3v6Z" fill="#778ca3" fill-rule="evenodd" data-name="Path 4"/><path d="M711.5 507.253a1 1 0 0 0-1 1v2a1 1 0 0 0 2 0v-2a1 1 0 0 0-1-1Z" fill="#778ca3" fill-rule="evenodd" data-name="Path 5"/></g></svg>