<?xml version="1.0" encoding="UTF-8"?>
<svg xmlns="http://www.w3.org/2000/svg" xmlns:xlink="http://www.w3.org/1999/xlink" width="24px" height="22px" viewBox="0 0 23 22" version="1.1">
<defs>
<filter id="alpha" filterUnits="objectBoundingBox" x="0%" y="0%" width="100%" height="100%">
  <feColorMatrix type="matrix" in="SourceGraphic" values="0 0 0 0 1 0 0 0 0 1 0 0 0 0 1 0 0 0 1 0"/>
</filter>
<mask id="mask0">
  <g filter="url(#alpha)">
<rect x="0" y="0" width="23" height="22" style="fill:rgb(0%,0%,0%);fill-opacity:0.988235;stroke:none;"/>
  </g>
</mask>
<clipPath id="clip1">
  <rect x="0" y="0" width="23" height="22"/>
</clipPath>
<g id="surface5" clip-path="url(#clip1)">
<path style=" stroke:none;fill-rule:evenodd;fill:rgb(0%,0%,0%);fill-opacity:1;" d="M 17.96875 1.851562 C 18.113281 1.878906 18.246094 1.933594 18.367188 2.011719 C 19.175781 2.480469 19.988281 2.9375 20.804688 3.382812 C 17.828125 5.199219 14.851562 7.003906 11.875 8.804688 C 10.070312 7.722656 8.261719 6.648438 6.449219 5.578125 C 7.335938 5.03125 8.238281 4.503906 9.152344 4.003906 C 10.03125 4.53125 10.910156 5.0625 11.789062 5.601562 C 13.863281 4.367188 15.925781 3.117188 17.96875 1.851562 Z M 17.96875 1.851562 "/>
</g>
<mask id="mask1">
  <g filter="url(#alpha)">
<rect x="0" y="0" width="23" height="22" style="fill:rgb(0%,0%,0%);fill-opacity:0.988235;stroke:none;"/>
  </g>
</mask>
<clipPath id="clip2">
  <rect x="0" y="0" width="23" height="22"/>
</clipPath>
<g id="surface8" clip-path="url(#clip2)">
<path style=" stroke:none;fill-rule:evenodd;fill:rgb(0%,0%,0%);fill-opacity:1;" d="M 2.28125 4.734375 C 5.207031 6.488281 8.128906 8.238281 11.058594 9.992188 C 11.109375 12.25 11.117188 14.507812 11.078125 16.761719 C 10.207031 16.199219 9.335938 15.636719 8.464844 15.070312 C 8.457031 13.917969 8.433594 12.765625 8.398438 11.617188 C 6.371094 10.386719 4.339844 9.15625 2.304688 7.9375 C 2.28125 6.867188 2.273438 5.800781 2.28125 4.734375 Z M 2.28125 4.734375 "/>
</g>
<mask id="mask2">
  <g filter="url(#alpha)">
<rect x="0" y="0" width="23" height="22" style="fill:rgb(0%,0%,0%);fill-opacity:0.984314;stroke:none;"/>
  </g>
</mask>
<clipPath id="clip3">
  <rect x="0" y="0" width="23" height="22"/>
</clipPath>
<g id="surface11" clip-path="url(#clip3)">
<path style=" stroke:none;fill-rule:evenodd;fill:rgb(0%,0%,0%);fill-opacity:1;" d="M 17.96875 6.835938 C 18.027344 7.914062 18.027344 8.996094 17.96875 10.085938 C 17.085938 10.597656 16.207031 11.117188 15.332031 11.640625 C 15.320312 14.019531 15.304688 16.398438 15.289062 18.777344 C 14.417969 19.339844 13.546875 19.902344 12.675781 20.46875 C 12.636719 16.976562 12.644531 13.484375 12.695312 9.992188 C 14.476562 8.976562 16.234375 7.925781 17.96875 6.835938 Z M 17.96875 6.835938 "/>
</g>
</defs>
<g id="surface1">
<use xlink:href="#surface5" mask="url(#mask0)"/>
<use xlink:href="#surface8" mask="url(#mask1)"/>
<use xlink:href="#surface11" mask="url(#mask2)"/>
</g>
</svg>
