<?xml version="1.0" encoding="UTF-8"?>
<svg xmlns="http://www.w3.org/2000/svg" xmlns:xlink="http://www.w3.org/1999/xlink" width="20px" height="18px" viewBox="0 0 24 23" version="1.1">
<defs>
<filter id="alpha" filterUnits="objectBoundingBox" x="0%" y="0%" width="100%" height="100%">
  <feColorMatrix type="matrix" in="SourceGraphic" values="0 0 0 0 1 0 0 0 0 1 0 0 0 0 1 0 0 0 1 0"/>
</filter>
<mask id="mask0">
  <g filter="url(#alpha)">
<rect x="0" y="0" width="24" height="23"/>
  </g>
</mask>
<clipPath id="clip1">
  <rect x="0" y="0" width="24" height="23"/>
</clipPath>
<g id="surface5" clip-path="url(#clip1)">
<path style=" stroke:none;fill-rule:evenodd;fill:#fff;fill-opacity:1;" d="M 20.394531 -0.0273438 C 20.453125 -0.0273438 20.507812 -0.0273438 20.566406 -0.0273438 C 21.691406 0.589844 22.828125 1.195312 23.972656 1.785156 C 23.972656 1.839844 23.972656 1.898438 23.972656 1.953125 C 20.191406 4.121094 16.421875 6.304688 12.664062 8.496094 C 12.574219 8.566406 12.476562 8.582031 12.375 8.554688 C 10.054688 7.21875 7.730469 5.894531 5.394531 4.589844 C 6.550781 3.90625 7.726562 3.253906 8.914062 2.632812 C 10.0625 3.289062 11.207031 3.949219 12.347656 4.617188 C 15.046875 3.089844 17.730469 1.539062 20.394531 -0.0273438 Z M 20.394531 -0.0273438 "/>
</g>
<mask id="mask1">
  <g filter="url(#alpha)">
<rect x="0" y="0" width="24" height="23"/>
  </g>
</mask>
<clipPath id="clip2">
  <rect x="0" y="0" width="24" height="23"/>
</clipPath>
<g id="surface8" clip-path="url(#clip2)">
<path style=" stroke:none;fill-rule:evenodd;fill:#fff;fill-opacity:1;" d="M -0.0273438 3.539062 C 3.777344 5.710938 7.585938 7.882812 11.394531 10.054688 C 11.460938 12.851562 11.472656 15.644531 11.421875 18.441406 C 10.289062 17.742188 9.152344 17.042969 8.019531 16.34375 C 8.007812 14.914062 7.980469 13.488281 7.933594 12.066406 C 5.289062 10.53125 2.632812 9.011719 -0.0273438 7.507812 C -0.0273438 6.183594 -0.0273438 4.863281 -0.0273438 3.539062 Z M -0.0273438 3.539062 "/>
</g>
<mask id="mask2">
  <g filter="url(#alpha)">
<rect x="0" y="0" width="24" height="23"/>
  </g>
</mask>
<clipPath id="clip3">
  <rect x="0" y="0" width="24" height="23"/>
</clipPath>
<g id="surface11" clip-path="url(#clip3)">
<path style=" stroke:none;fill-rule:evenodd;fill:#fff;fill-opacity:1;" d="M 13.644531 22.972656 C 13.585938 22.972656 13.527344 22.972656 13.472656 22.972656 C 13.453125 18.667969 13.472656 14.359375 13.527344 10.054688 C 15.847656 8.789062 18.148438 7.484375 20.421875 6.148438 C 20.472656 7.488281 20.460938 8.828125 20.394531 10.167969 C 19.246094 10.804688 18.101562 11.445312 16.960938 12.09375 C 16.941406 15.039062 16.921875 17.988281 16.902344 20.933594 C 15.8125 21.605469 14.722656 22.285156 13.644531 22.972656 Z M 13.644531 22.972656 "/>
</g>
</defs>
<g id="surface1">
<use xlink:href="#surface5" mask="url(#mask0)"/>
<use xlink:href="#surface8" mask="url(#mask1)"/>
<use xlink:href="#surface11" mask="url(#mask2)"/>
</g>
</svg>