<?xml version="1.0" encoding="UTF-8"?>
<!DOCTYPE svg PUBLIC "-//W3C//DTD SVG 1.1//EN" "http://www.w3.org/Graphics/SVG/1.1/DTD/svg11.dtd">
<svg xmlns="http://www.w3.org/2000/svg" version="1.1" width="24px" height="22.2px" style="shape-rendering:geometricPrecision; text-rendering:geometricPrecision; image-rendering:optimizeQuality; fill-rule:evenodd; clip-rule:evenodd" xmlns:xlink="http://www.w3.org/1999/xlink">
<g><path d="M 405.5,40.5 C 408.691,41.0922 411.691,42.2589 414.5,44C 432.673,54.2541 451.007,64.2541 469.5,74C 402.335,113.66 335.168,153.16 268,192.5C 227.232,168.867 186.399,145.367 145.5,122C 165.578,109.963 185.912,98.4633 206.5,87.5C 226.394,99.0316 246.227,110.698 266,122.5C 312.826,95.5117 359.326,68.1784 405.5,40.5 Z"/></g>
<g><path d="M 51.5,103.5 C 117.473,141.822 183.473,180.155 249.5,218.5C 250.667,267.83 250.833,317.163 250,366.5C 230.333,354.167 210.667,341.833 191,329.5C 190.828,304.261 190.328,279.094 189.5,254C 143.781,227.054 97.9477,200.221 52,173.5C 51.5,150.169 51.3334,126.836 51.5,103.5 Z"/></g>
<g><path d="M 405.5,149.5 C 406.829,173.003 406.829,196.67 405.5,220.5C 385.585,231.707 365.752,243.04 346,254.5C 345.667,306.5 345.333,358.5 345,410.5C 325.366,422.821 305.7,435.154 286,447.5C 285.167,371.164 285.333,294.831 286.5,218.5C 326.688,196.245 366.355,173.245 405.5,149.5 Z"/></g>
</svg>
