<svg width="19" height="17" viewBox="0 0 19 17" fill="none" xmlns="http://www.w3.org/2000/svg">
<g id="&#240;&#159;&#166;&#134; icon &#34;sync&#34;">
<path id="Vector" d="M16.3761 2.75878L15.0674 1.45011L18.8096 1.44614L18.8081 0L12.6628 0.00650749V6.14609H14.1089V2.53671L15.3535 3.78133C16.3165 4.74446 16.9726 5.97133 17.2388 7.30703C17.5051 8.64273 17.3696 10.0274 16.8494 11.2861C16.3293 12.5449 15.4479 13.6213 14.3164 14.3795C13.185 15.1376 11.8543 15.5436 10.4923 15.546L10.4948 16.9921C12.1426 16.9892 13.7525 16.4981 15.1214 15.5808C16.4903 14.6636 17.5567 13.3613 18.1859 11.8384C18.8152 10.3155 18.9791 8.64028 18.657 7.02429C18.3349 5.40831 17.5412 3.924 16.3761 2.75878Z" fill="#464646"/>
<path id="Vector_2" d="M8.32559 1.44614L8.32306 0C6.67529 0.00293037 5.06533 0.494033 3.69646 1.4113C2.32759 2.32856 1.2612 3.63086 0.631938 5.15375C0.00267407 6.67664 -0.161247 8.35184 0.160873 9.96783C0.482993 11.5838 1.27671 13.0681 2.4418 14.2333L3.75444 15.546H0.00903708V16.9921H6.15512V10.846H4.70898V14.4554L3.46436 13.2108C2.50135 12.2477 1.84531 11.0208 1.57907 9.68509C1.31282 8.34939 1.44832 6.96474 1.96845 5.70599C2.48857 4.44724 3.37 3.37082 4.50145 2.61265C5.63289 1.85448 6.96362 1.44856 8.32559 1.44614Z" fill="#464646"/>
</g>
</svg>
