<svg xmlns="http://www.w3.org/2000/svg" width="20" height="24" viewBox="701.5 418.25 20 24"><g data-name="CompositeLayer"><path d="M711.5 432.25c-5.52.006-9.994 4.032-10 9 0 .552.497 1 1.111 1s1.111-.448 1.111-1c0-3.866 3.482-7 7.778-7 4.296 0 7.778 3.134 7.778 7 0 .552.497 1 1.11 1 .615 0 1.112-.448 1.112-1-.006-4.968-4.48-8.994-10-9Z" fill="#778ca3" fill-rule="evenodd" data-name="Path 3"/><path d="M711.5 430.25a6 6 0 1 0 0-12 6 6 0 0 0 0 12Zm0-10a4 4 0 1 1 0 8 4 4 0 0 1 0-8Z" fill="#778ca3" fill-rule="evenodd" data-name="Path 2"/></g></svg>